<?xml version="1.0" standalone="no"?>
<!DOCTYPE svg PUBLIC "-//W3C//DTD SVG 20010904//EN"
 "http://www.w3.org/TR/2001/REC-SVG-20010904/DTD/svg10.dtd">
<svg version="1.0" xmlns="http://www.w3.org/2000/svg"
 width="1838.000000pt" height="771.000000pt" viewBox="0 0 1838.000000 771.000000"
 preserveAspectRatio="xMidYMid meet">

<g transform="translate(0.000000,771.000000) scale(0.100000,-0.100000)"
fill="#000000" stroke="none">
<path d="M4125 5679 c-4 -5 10 -94 30 -197 43 -219 64 -332 141 -732 30 -162
57 -301 60 -307 3 -10 95 -13 418 -13 l415 0 -5 33 c-3 17 -38 296 -78 618
-41 323 -77 592 -81 598 -9 15 -891 15 -900 0z"/>
<path d="M6377 5683 c-13 -3 -111 -189 -313 -596 -163 -326 -301 -607 -309
-624 l-14 -33 457 0 457 0 125 223 c68 122 161 287 205 367 45 80 106 188 135
240 200 355 230 410 230 420 0 9 -937 13 -973 3z"/>
<path d="M7465 5682 c-10 -6 -155 -676 -155 -712 0 -13 56 -15 455 -13 250 1
456 -1 458 -5 2 -4 -20 -117 -49 -252 -29 -135 -53 -251 -53 -257 -1 -10 97
-13 458 -13 429 0 460 1 465 18 6 19 67 297 91 417 9 44 22 83 28 87 7 5 225
8 486 7 260 0 474 1 476 3 1 2 7 30 13 63 6 33 38 188 72 345 33 157 60 293
60 302 0 17 -77 18 -1397 18 -769 0 -1403 -4 -1408 -8z"/>
<path d="M10676 5681 c-5 -8 -38 -156 -106 -476 -28 -132 -76 -355 -106 -495
-30 -140 -54 -260 -54 -267 0 -10 158 -13 825 -13 454 0 825 3 825 6 0 5 -58
145 -160 384 -15 36 -52 124 -82 195 -31 72 -93 218 -138 325 -129 306 -142
335 -154 343 -14 9 -844 8 -850 -2z"/>
<path d="M12656 5681 c-5 -8 -50 -207 -111 -496 -20 -93 -47 -219 -60 -280
-13 -60 -40 -184 -60 -275 -19 -91 -37 -173 -39 -182 -4 -17 22 -18 430 -18
239 0 434 1 434 3 0 5 70 336 168 790 54 252 95 460 91 462 -12 8 -849 4 -853
-4z"/>
<path d="M4450 3954 c0 -9 61 -330 100 -524 16 -80 45 -233 66 -340 57 -301
71 -370 79 -378 3 -4 227 -8 496 -9 l490 -3 25 43 c28 48 219 387 473 842 96
171 182 325 193 343 l20 32 -444 0 -443 0 -100 -199 c-54 -110 -102 -198 -106
-196 -3 3 -9 33 -12 67 -4 35 -14 123 -24 196 l-16 132 -399 0 c-219 0 -398
-3 -398 -6z"/>
<path d="M7977 3788 c-20 -95 -79 -373 -132 -617 -53 -245 -94 -450 -91 -457
4 -11 96 -13 456 -13 l451 -1 8 23 c4 12 20 76 34 142 14 66 44 206 67 310 22
105 52 240 65 300 13 61 40 184 60 275 19 91 38 175 40 188 l5 22 -463 0 -464
0 -36 -172z"/>
<path d="M10282 3863 c-30 -139 -83 -380 -142 -658 -29 -132 -63 -291 -76
-353 -13 -61 -24 -121 -24 -132 0 -19 8 -19 428 -17 l427 2 12 48 c6 27 37
166 67 310 31 144 85 399 121 567 36 168 65 311 65 318 0 9 -92 12 -428 12
l-428 0 -22 -97z"/>
<path d="M11509 3892 c52 -123 181 -427 191 -447 11 -22 79 -183 198 -465 22
-52 58 -135 79 -185 l39 -90 430 -2 431 -2 42 197 c190 883 221 1030 221 1047
0 13 -110 15 -829 15 l-830 0 28 -68z"/>
</g>
</svg>
